# xmcd
#
# Track frame offsets:
# 150
# 14137
# 28013
# 41661
# 58199
# 73142
# 85121
# 99165
# 114381
# 128815
# 138533
# 145026
# 158647
# 173567
#
# Disc length: 2562 seconds
#
#
# Revision: 0
# Processed by: cddbd v1.5.2PL0 Copyright (c) Steve Scherf et al.
# Submitted via: FreeRIP 2.945 
#
DISCID=bc0a000e
DTITLE=crooners cd1
DYEAR=2005
DGENRE=Oldies
TTITLE0=bing crosby - i've got the world on a string
TTITLE1=brook benton - a lovers question
TTITLE2=dean martin - i left my heart in san francisco
TTITLE3=frank sinatra - all the way
TTITLE4=fred astaire - cheek to cheek
TTITLE5=mario lanza - ave maria
TTITLE6=mel torme - i can't give you anything but love
TTITLE7=nat king cole - embraceable
TTITLE8=perry como - i wonder who's kissing you
TTITLE9=pj proby - draw me a circle
TTITLE10=sammy davis jr - hey there
TTITLE11=tonny bennet - i've grown accustomed to her face
TTITLE12=tony martin - red sails in the sunset
TTITLE13=vic damone - can't take my eyes off you
EXTD=
EXTT0=
EXTT1=
EXTT2=
EXTT3=
EXTT4=
EXTT5=
EXTT6=
EXTT7=
EXTT8=
EXTT9=
EXTT10=
EXTT11=
EXTT12=
EXTT13=
PLAYORDER=
